<svg width="162" height="162" viewBox="0 0 162 162" fill="none" xmlns="http://www.w3.org/2000/svg">
<path d="M72.134 74.507L3.95 102.231C1.562 103.202 0 105.523 0 108.101V125.922C0 128.501 1.563 130.823 3.953 131.793L72.164 159.483C77.606 161.692 83.695 161.692 89.137 159.483L157.348 131.793C159.738 130.823 161.301 128.501 161.301 125.922V108.101C161.301 105.523 159.739 103.202 157.351 102.231L89.167 74.507C83.707 72.287 77.595 72.287 72.134 74.507Z" fill="#C300EB"/>
<path d="M160.863 105.832C160.246 104.229 159.004 102.903 157.351 102.231L89.167 74.507C83.706 72.287 77.595 72.287 72.134 74.507L3.94902 102.231C2.29602 102.903 1.05501 104.229 0.437012 105.832C1.05501 107.436 2.29701 108.763 3.95201 109.434L70.353 136.389C76.956 139.069 84.344 139.069 90.947 136.389L157.348 109.434C159.003 108.763 160.246 107.437 160.863 105.832Z" fill="#25002D"/>
<path d="M72.134 38.086L3.95 65.81C1.562 66.781 0 69.102 0 71.68V89.501C0 92.08 1.563 94.402 3.953 95.372L72.164 123.061C77.606 125.27 83.695 125.27 89.137 123.061L157.348 95.372C159.738 94.402 161.301 92.08 161.301 89.501V71.68C161.301 69.102 159.739 66.781 157.351 65.81L89.167 38.086C83.707 35.866 77.595 35.866 72.134 38.086Z" fill="#C300EB"/>
<path d="M160.863 69.411C160.246 67.808 159.004 66.482 157.351 65.81L89.167 38.086C83.706 35.866 77.595 35.866 72.134 38.086L3.94902 65.81C2.29602 66.482 1.05501 67.808 0.437012 69.411C1.05501 71.015 2.29701 72.342 3.95201 73.013L70.353 99.968C76.956 102.648 84.344 102.648 90.947 99.968L157.348 73.013C159.003 72.342 160.246 71.015 160.863 69.411Z" fill="#25002D"/>
<path d="M72.134 1.665L3.95 29.389C1.562 30.36 0 32.681 0 35.259V53.08C0 55.659 1.563 57.981 3.953 58.951L72.164 86.64C77.606 88.849 83.695 88.849 89.137 86.64L157.348 58.951C159.738 57.981 161.301 55.659 161.301 53.08V35.259C161.301 32.681 159.739 30.36 157.351 29.389L89.167 1.665C83.707 -0.555 77.595 -0.555 72.134 1.665Z" fill="#C300EB"/>
<path d="M160.863 32.99C160.246 31.387 159.004 30.061 157.351 29.389L89.167 1.665C83.706 -0.555 77.595 -0.555 72.134 1.665L3.94902 29.389C2.29602 30.061 1.05501 31.387 0.437012 32.99C1.05501 34.594 2.29701 35.921 3.95201 36.592L70.353 63.547C76.956 66.227 84.344 66.227 90.947 63.547L157.348 36.592C159.003 35.921 160.246 34.594 160.863 32.99Z" fill="#25002D"/>
</svg>
