<svg width="162" height="162" viewBox="0 0 162 162" fill="none" xmlns="http://www.w3.org/2000/svg">
<path d="M72.134 74.507L3.95 102.231C1.562 103.202 0 105.523 0 108.101V125.922C0 128.501 1.563 130.823 3.953 131.793L72.164 159.483C77.606 161.692 83.695 161.692 89.137 159.483L157.348 131.793C159.738 130.823 161.301 128.501 161.301 125.922V108.101C161.301 105.523 159.739 103.202 157.351 102.231L89.167 74.507C83.707 72.287 77.595 72.287 72.134 74.507Z" fill="#C300EB"/>
<path d="M156.974 103.157L157.351 102.231L156.974 103.157C158.236 103.67 159.217 104.639 159.777 105.832C159.217 107.027 158.235 107.995 156.972 108.507L156.972 108.507L90.5709 135.462C84.2091 138.045 77.0909 138.045 70.7291 135.462L4.32814 108.507L4.32774 108.507C3.06547 107.996 2.08428 107.026 1.5236 105.832C2.08419 104.639 3.06464 103.67 4.32562 103.157L4.32568 103.157L72.5106 75.4334C77.7301 73.3116 83.5708 73.3116 88.7903 75.4334C88.7904 75.4334 88.7904 75.4334 88.7904 75.4334L156.974 103.157Z" fill="#25002D" stroke="#C300EB" stroke-width="2"/>
<path d="M72.134 38.086L3.95 65.81C1.562 66.781 0 69.102 0 71.68V89.501C0 92.08 1.563 94.402 3.953 95.372L72.164 123.061C77.606 125.27 83.695 125.27 89.137 123.061L157.348 95.372C159.738 94.402 161.301 92.08 161.301 89.501V71.68C161.301 69.102 159.739 66.781 157.351 65.81L89.167 38.086C83.707 35.866 77.595 35.866 72.134 38.086Z" fill="#C300EB"/>
<path d="M156.974 66.7364L157.351 65.81L156.974 66.7364C158.236 67.2492 159.217 68.218 159.777 69.4111C159.217 70.605 158.235 71.5744 156.972 72.0863L156.972 72.0865L90.5709 99.0414C84.2091 101.624 77.0909 101.624 70.7291 99.0414L4.32814 72.0865L4.32774 72.0863C3.06548 71.5745 2.08428 70.6054 1.5236 69.4111C2.08419 68.2176 3.06463 67.249 4.32562 66.7364L4.32568 66.7364L72.5106 39.0124C77.7301 36.8906 83.5708 36.8906 88.7903 39.0124C88.7904 39.0124 88.7904 39.0124 88.7904 39.0124L156.974 66.7364Z" fill="#25002D" stroke="#C300EB" stroke-width="2"/>
<path d="M72.134 1.665L3.95 29.389C1.562 30.36 0 32.681 0 35.259V53.08C0 55.659 1.563 57.981 3.953 58.951L72.164 86.64C77.606 88.849 83.695 88.849 89.137 86.64L157.348 58.951C159.738 57.981 161.301 55.659 161.301 53.08V35.259C161.301 32.681 159.739 30.36 157.351 29.389L89.167 1.665C83.707 -0.555 77.595 -0.555 72.134 1.665Z" fill="#C300EB"/>
<path d="M157.351 29.389L156.974 30.3154C157.945 30.7101 158.749 31.374 159.323 32.2024C159.65 32.674 159.65 33.3063 159.323 33.7778C158.749 34.6069 157.944 35.2711 156.972 35.6653L156.972 35.6654L90.5709 62.6204C84.2091 65.2025 77.0909 65.2025 70.7291 62.6204L4.32814 35.6654L4.32774 35.6653C3.35638 35.2714 2.55291 34.6079 1.97818 33.7794C1.65051 33.307 1.65055 32.6733 1.97835 32.2009C2.55275 31.373 3.35544 30.7098 4.32562 30.3154L4.32568 30.3154L72.5106 2.59138C77.7301 0.469549 83.5708 0.46954 88.7903 2.59135C88.7904 2.59136 88.7904 2.59137 88.7904 2.59138L156.974 30.3154L157.351 29.389Z" fill="#25002D" stroke="#C300EB" stroke-width="2"/>
</svg>
